<?xml version="1.0" standalone="no"?><!DOCTYPE svg PUBLIC "-//W3C//DTD SVG 1.1//EN" "http://www.w3.org/Graphics/SVG/1.1/DTD/svg11.dtd"><svg t="1516068798582" class="icon" style="" viewBox="0 0 1024 1024" version="1.1" xmlns="http://www.w3.org/2000/svg" p-id="1602" xmlns:xlink="http://www.w3.org/1999/xlink" width="200" height="200"><defs><style type="text/css"></style></defs><path d="M846.769231 177.230769C661.661538-5.907692 362.338462-5.907692 177.230769 177.230769-5.907692 362.338462-5.907692 661.661538 177.230769 846.769231c185.107692 185.107692 484.430769 185.107692 667.569231 0 185.107692-185.107692 185.107692-484.430769 1.969231-669.538462z m-19.692308 374.153846c0 11.815385-7.876923 19.692308-19.692308 19.692308H590.769231c-9.846154 0-19.692308 9.846154-19.692308 19.692308v216.615384c0 9.846154-9.846154 19.692308-19.692308 19.692308h-78.76923c-11.815385 0-19.692308-7.876923-19.692308-19.692308V590.769231c0-11.815385-7.876923-19.692308-19.692308-19.692308H216.615385c-11.815385 0-19.692308-7.876923-19.692308-19.692308v-78.76923c0-9.846154 9.846154-19.692308 19.692308-19.692308h216.615384c11.815385 0 19.692308-7.876923 19.692308-19.692308V216.615385c0-9.846154 9.846154-19.692308 19.692308-19.692308h78.76923c9.846154 0 19.692308 7.876923 19.692308 19.692308v216.615384c0 11.815385 7.876923 19.692308 19.692308 19.692308h216.615384c9.846154 0 19.692308 9.846154 19.692308 19.692308v78.76923z" p-id="1603"></path></svg>